# xmcd
#
# Track frame offsets:
#	150
#	13630
#	30475
#	47212
#	64945
#	82039
#	103394
#	121775
#	132696
#	150996
#	166351
#	178820
#	196742
#	208694
#	224123
#
# Disc length: 3136 seconds
#
# Revision: 1
# Processed by: cddbd v1.5.2PL0 Copyright (c) Steve Scherf et al.
# Submitted via: audiograbber 1.83.01
#
DISCID=dc0c3e0f
DTITLE=The Sunny Cowgirls - Dust Will Settle
DYEAR=2008
DGENRE=Country
TTITLE0=Dancing On The Darling
TTITLE1=Acting Stupid
TTITLE2=Grog Monster
TTITLE3=Pink Galahs
TTITLE4=Naked
TTITLE5=Kelpie
TTITLE6=Dust Will Settle
TTITLE7=Old Silo
TTITLE8=Take The Time
TTITLE9=The Hard Way
TTITLE10=Rabbit
TTITLE11=One Of You
TTITLE12=Live It Loud
TTITLE13=Ten Bucks In The Glovebox
TTITLE14=Someday (collaboration with adam brand - bonus track)
EXTD=
EXTT0=
EXTT1=
EXTT2=
EXTT3=
EXTT4=
EXTT5=
EXTT6=
EXTT7=
EXTT8=
EXTT9=
EXTT10=
EXTT11=
EXTT12=
EXTT13=
EXTT14=
PLAYORDER=
